<svg width="587.7999877929688px" height="96.81875px" xmlns="http://www.w3.org/2000/svg" viewBox="-43.899993896484375 26.590625000000003 587.7999877929688 96.81875" style="background: rgba(0, 0, 0, 0);" preserveAspectRatio="xMidYMid"><defs><linearGradient id="editing-gradient-gradient" x1="0" x2="1" y1="0.5" y2="0.5" gradientUnits="objectBoundingBox"><stop offset="0" stop-color="#f0f"></stop><stop offset="1" stop-color="#0ff"></stop></linearGradient></defs><g><g transform="translate(41.62500610202551, 92.7471866607666)"><path d="M19.94-22.64L19.94-22.64L19.94-22.64Q20.68-24.11 20.68-25.48L20.68-25.48L20.68-25.48Q20.68-26.85 20.53-27.61L20.53-27.61L20.53-27.61Q20.38-28.37 20.04-28.96L20.04-28.96L20.04-28.96Q19.31-30.23 17.84-30.23L17.84-30.23L17.84-30.23Q16.02-30.23 14.55-28.91L14.55-28.91L14.55-28.91Q12.99-27.54 12.99-25.38L12.99-25.38L12.99-25.38Q12.99-24.01 13.94-22.96L13.94-22.96L13.94-22.96Q14.90-21.90 16.37-20.92L16.37-20.92L16.37-20.92Q17.84-19.94 19.50-18.96L19.50-18.96L19.50-18.96Q21.17-17.98 22.64-16.81L22.64-16.81L22.64-16.81Q26.02-14.11 26.02-10.49L26.02-10.49L26.02-10.49Q26.02-8.04 24.72-5.95L24.72-5.95L24.72-5.95Q23.42-3.87 21.27-2.35L21.27-2.35L21.27-2.35Q16.56 0.98 10.34 0.98L10.34 0.98L10.34 0.98Q5.29 0.98 2.70-0.66L2.70-0.66L2.70-0.66Q0.10-2.30 0.10-4.80L0.10-4.80L0.10-4.80Q0.10-9.26 3.58-10.39L3.58-10.39L3.58-10.39Q4.56-10.73 6.05-10.73L6.05-10.73L6.05-10.73Q7.55-10.73 9.26-10.09L9.26-10.09L9.26-10.09Q8.48-8.09 8.48-6.27L8.48-6.27L8.48-6.27Q8.48-2.35 11.27-2.35L11.27-2.35L11.27-2.35Q13.08-2.35 14.58-3.68L14.58-3.68L14.58-3.68Q16.07-5.00 16.07-6.49L16.07-6.49L16.07-6.49Q16.07-7.99 15.12-9.06L15.12-9.06L15.12-9.06Q14.16-10.14 12.74-11.00L12.74-11.00L12.74-11.00Q11.32-11.86 9.68-12.69L9.68-12.69L9.68-12.69Q8.04-13.52 6.62-14.70L6.62-14.70L6.62-14.70Q3.28-17.39 3.28-21.71L3.28-21.71L3.28-21.71Q3.28-24.50 4.66-26.68L4.66-26.68L4.66-26.68Q6.03-28.86 8.23-30.33L8.23-30.33L8.23-30.33Q12.64-33.32 18.06-33.32L18.06-33.32L18.06-33.32Q23.47-33.32 26.09-31.70L26.09-31.70L26.09-31.70Q28.71-30.09 28.71-27.34L28.71-27.34L28.71-27.34Q28.71-24.94 26.85-23.42L26.85-23.42L26.85-23.42Q25.23-22.15 23.28-22.15L23.28-22.15L23.28-22.15Q21.32-22.15 19.94-22.64ZM54.39-5.44L54.39-5.44L54.39-5.44Q54.39-3.28 56.59-2.65L56.59-2.65L56.59-2.65Q56.06-0.83 53.95 0.15L53.95 0.15L53.95 0.15Q52.19 0.98 50.25 0.98L50.25 0.98L50.25 0.98Q48.31 0.98 47.31 0.47L47.31 0.47L47.31 0.47Q46.30-0.05 45.77-0.88L45.77-0.88L45.77-0.88Q44.88-2.16 44.88-4.56L44.88-4.56L44.88-4.56Q44.88-5.98 45.67-9.90L45.67-9.90L46.35-13.62L46.35-13.62Q47.19-17.89 47.19-19.45L47.19-19.45L47.19-19.45Q47.19-22.20 45.67-22.20L45.67-22.20L45.67-22.20Q43.76-22.20 42.53-19.40L42.53-19.40L42.53-19.40Q42.04-18.33 41.70-16.71L41.70-16.71L38.37 0L28.52 0.98L35.43-34.30L45.28-35.28L44.88-33.32L44.88-33.32Q43.51-25.77 42.34-23.23L42.34-23.23L42.34-23.23Q45.08-25.97 50.13-25.97L50.13-25.97L50.13-25.97Q55.47-25.97 56.45-22.44L56.45-22.44L56.45-22.44Q56.79-21.32 56.79-20.34L56.79-20.34L56.79-20.34Q56.79-19.36 56.72-18.60L56.72-18.60L56.72-18.60Q56.64-17.84 56.40-16.46L56.40-16.46L55.76-12.94L54.64-7.40L54.64-7.40Q54.39-6.27 54.39-5.44ZM62.70-1.47L62.70-1.47L62.70-1.47Q61.54-2.74 61.03-4.75L61.03-4.75L61.03-4.75Q60.52-6.76 60.52-10.04L60.52-10.04L60.52-10.04Q60.52-13.33 61.64-16.32L61.64-16.32L61.64-16.32Q62.77-19.31 64.83-21.46L64.83-21.46L64.83-21.46Q69.04-25.97 76.00-25.97L76.00-25.97L76.00-25.97Q78.50-25.97 80.31-25.14L80.31-25.14L88.69-25.97L85.06-6.86L85.06-6.86Q84.92-6.27 84.92-5.19L84.92-5.19L84.92-5.19Q84.92-4.12 85.58-3.43L85.58-3.43L85.58-3.43Q86.24-2.74 87.22-2.65L87.22-2.65L87.22-2.65Q86.73-0.98 84.94 0L84.94 0L84.94 0Q83.15 0.98 81.14 0.98L81.14 0.98L81.14 0.98Q79.14 0.98 77.79 0.22L77.79 0.22L77.79 0.22Q76.44-0.54 76.05-1.81L76.05-1.81L76.05-1.81Q75.26-0.59 73.60 0.20L73.60 0.20L73.60 0.20Q71.93 0.98 69.70 0.98L69.70 0.98L69.70 0.98Q67.47 0.98 65.66 0.39L65.66 0.39L65.66 0.39Q63.85-0.20 62.70-1.47ZM73.03-21.36L73.03-21.36L73.03-21.36Q72.47-20.48 71.98-18.99L71.98-18.99L71.98-18.99Q71.49-17.49 70.68-13.50L70.68-13.50L70.68-13.50Q69.87-9.51 69.87-6.66L69.87-6.66L69.87-6.66Q69.87-3.82 70.31-2.99L70.31-2.99L70.31-2.99Q70.76-2.16 71.54-2.16L71.54-2.16L71.54-2.16Q73.11-2.16 74.26-3.65L74.26-3.65L74.26-3.65Q75.41-5.15 75.85-7.79L75.85-7.79L78.45-22.15L78.45-22.15Q77.42-23.03 76.22-23.03L76.22-23.03L76.22-23.03Q75.02-23.03 74.31-22.64L74.31-22.64L74.31-22.64Q73.60-22.25 73.03-21.36ZM106.67-13.77L106.67-13.77L106.67-13.77Q108.44-16.91 108.44-20.09L108.44-20.09L108.44-20.09Q108.44-22.20 106.92-22.20L106.92-22.20L106.92-22.20Q105.74-22.20 104.52-20.19L104.52-20.19L104.52-20.19Q103.24-18.18 102.85-15.58L102.85-15.58L100.30 0L90.16 0.98L95.16-24.99L103.24-25.97L102.36-21.02L102.36-21.02Q104.76-25.97 110.15-25.97L110.15-25.97L110.15-25.97Q112.99-25.97 114.54-24.50L114.54-24.50L114.54-24.50Q116.08-23.03 116.08-20.02L116.08-20.02L116.08-20.02Q116.08-17.00 114.10-15.09L114.10-15.09L114.10-15.09Q112.11-13.18 108.73-13.18L108.73-13.18L108.73-13.18Q107.26-13.18 106.67-13.77ZM136.71-8.28L136.71-8.28L136.71-8.28Q137.94-7.45 137.94-5.61L137.94-5.61L137.94-5.61Q137.94-3.77 137.00-2.60L137.00-2.60L137.00-2.60Q136.07-1.42 134.55-0.64L134.55-0.64L134.55-0.64Q131.42 0.98 128.04 0.98L128.04 0.98L128.04 0.98Q124.66 0.98 122.67 0.24L122.67 0.24L122.67 0.24Q120.69-0.49 119.36-1.86L119.36-1.86L119.36-1.86Q116.77-4.46 116.77-9.21L116.77-9.21L116.77-9.21Q116.77-16.61 120.78-21.12L120.78-21.12L120.78-21.12Q125.10-25.97 132.59-25.97L132.59-25.97L132.59-25.97Q137.25-25.97 139.55-24.01L139.55-24.01L139.55-24.01Q141.27-22.54 141.27-20.14L141.27-20.14L141.27-20.14Q141.27-11.52 126.37-11.52L126.37-11.52L126.37-11.52Q126.17-10.24 126.17-9.16L126.17-9.16L126.17-9.16Q126.17-6.91 127.18-6.05L127.18-6.05L127.18-6.05Q128.18-5.19 130.05-5.19L130.05-5.19L130.05-5.19Q131.91-5.19 133.89-6.05L133.89-6.05L133.89-6.05Q135.88-6.91 136.71-8.28ZM126.71-13.62L126.71-13.62L126.71-13.62Q130.19-13.62 132.20-15.78L132.20-15.78L132.20-15.78Q134.21-17.84 134.21-21.12L134.21-21.12L134.21-21.12Q134.21-22.25 133.79-22.86L133.79-22.86L133.79-22.86Q133.38-23.47 132.54-23.47L132.54-23.47L132.54-23.47Q131.71-23.47 131.00-23.15L131.00-23.15L131.00-23.15Q130.29-22.83 129.56-21.76L129.56-21.76L129.56-21.76Q127.74-19.31 126.71-13.62ZM145.06-1.47L145.06-1.47L145.06-1.47Q143.91-2.74 143.40-4.75L143.40-4.75L143.40-4.75Q142.88-6.76 142.88-10.04L142.88-10.04L142.88-10.04Q142.88-13.33 144.01-16.32L144.01-16.32L144.01-16.32Q145.14-19.31 147.20-21.46L147.20-21.46L147.20-21.46Q151.41-25.97 158.37-25.97L158.37-25.97L158.37-25.97Q160.87-25.97 162.68-25.14L162.68-25.14L171.06-25.97L167.43-6.86L167.43-6.86Q167.29-6.27 167.29-5.19L167.29-5.19L167.29-5.19Q167.29-4.12 167.95-3.43L167.95-3.43L167.95-3.43Q168.61-2.74 169.59-2.65L169.59-2.65L169.59-2.65Q169.10-0.98 167.31 0L167.31 0L167.31 0Q165.52 0.98 163.51 0.98L163.51 0.98L163.51 0.98Q161.50 0.98 160.16 0.22L160.16 0.22L160.16 0.22Q158.81-0.54 158.42-1.81L158.42-1.81L158.42-1.81Q157.63-0.59 155.97 0.20L155.97 0.20L155.97 0.20Q154.30 0.98 152.07 0.98L152.07 0.98L152.07 0.98Q149.84 0.98 148.03 0.39L148.03 0.39L148.03 0.39Q146.22-0.20 145.06-1.47ZM155.40-21.36L155.40-21.36L155.40-21.36Q154.84-20.48 154.35-18.99L154.35-18.99L154.35-18.99Q153.86-17.49 153.05-13.50L153.05-13.50L153.05-13.50Q152.24-9.51 152.24-6.66L152.24-6.66L152.24-6.66Q152.24-3.82 152.68-2.99L152.68-2.99L152.68-2.99Q153.13-2.16 153.91-2.16L153.91-2.16L153.91-2.16Q155.48-2.16 156.63-3.65L156.63-3.65L156.63-3.65Q157.78-5.15 158.22-7.79L158.22-7.79L160.82-22.15L160.82-22.15Q159.79-23.03 158.59-23.03L158.59-23.03L158.59-23.03Q157.39-23.03 156.68-22.64L156.68-22.64L156.68-22.64Q155.97-22.25 155.40-21.36ZM173.07-2.35L173.07-2.35L179.14-34.30L189.09-35.28L187.57-27.78L187.57-27.78Q187.03-25.48 186.35-23.86L186.35-23.86L186.35-23.86Q187.42-25.23 189.78-25.77L189.78-25.77L189.78-25.77Q190.46-25.97 191.30-25.97L191.30-25.97L191.30-25.97Q195.85-25.97 198.35-23.20L198.35-23.20L198.35-23.20Q200.85-20.43 200.85-15.09L200.85-15.09L200.85-15.09Q200.85-8.13 196.88-3.77L196.88-3.77L196.88-3.77Q192.62 0.98 184.88 0.98L184.88 0.98L184.88 0.98Q179.54 0.98 175.52-0.78L175.52-0.78L175.52-0.78Q174.10-1.42 173.07-2.35ZM185.51-17.15L182.92-2.79L182.92-2.79Q183.95-1.91 185.22-1.91L185.22-1.91L185.22-1.91Q186.49-1.91 187.23-2.40L187.23-2.40L187.23-2.40Q187.96-2.89 188.50-3.87L188.50-3.87L188.50-3.87Q189.97-6.52 191.15-14.60L191.15-14.60L191.15-14.60Q191.49-16.91 191.49-19.21L191.49-19.21L191.49-19.21Q191.49-21.51 190.98-22.25L190.98-22.25L190.98-22.25Q190.46-22.98 189.48-22.98L189.48-22.98L189.48-22.98Q186.49-22.98 185.51-17.15L185.51-17.15ZM215.50-2.70L215.50-2.70L215.50-2.70Q213.98 0.98 209.13 0.98L209.13 0.98L209.13 0.98Q206.68 0.98 205.11-0.73L205.11-0.73L205.11-0.73Q203.84-2.16 203.84-3.77L203.84-3.77L203.84-3.77Q203.84-7.45 205.56-15.48L205.56-15.48L209.13-34.30L219.08-35.28L214.33-10.49L214.33-10.49Q213.49-6.86 213.49-5.59L213.49-5.59L213.49-5.59Q213.49-2.79 215.50-2.70ZM239.51-8.28L239.51-8.28L239.51-8.28Q240.74-7.45 240.74-5.61L240.74-5.61L240.74-5.61Q240.74-3.77 239.81-2.60L239.81-2.60L239.81-2.60Q238.88-1.42 237.36-0.64L237.36-0.64L237.36-0.64Q234.22 0.98 230.84 0.98L230.84 0.98L230.84 0.98Q227.46 0.98 225.47 0.24L225.47 0.24L225.47 0.24Q223.49-0.49 222.17-1.86L222.17-1.86L222.17-1.86Q219.57-4.46 219.57-9.21L219.57-9.21L219.57-9.21Q219.57-16.61 223.59-21.12L223.59-21.12L223.59-21.12Q227.90-25.97 235.40-25.97L235.40-25.97L235.40-25.97Q240.05-25.97 242.35-24.01L242.35-24.01L242.35-24.01Q244.07-22.54 244.07-20.14L244.07-20.14L244.07-20.14Q244.07-11.52 229.17-11.52L229.17-11.52L229.17-11.52Q228.98-10.24 228.98-9.16L228.98-9.16L228.98-9.16Q228.98-6.91 229.98-6.05L229.98-6.05L229.98-6.05Q230.99-5.19 232.85-5.19L232.85-5.19L232.85-5.19Q234.71-5.19 236.69-6.05L236.69-6.05L236.69-6.05Q238.68-6.91 239.51-8.28ZM229.52-13.62L229.52-13.62L229.52-13.62Q233.00-13.62 235.00-15.78L235.00-15.78L235.00-15.78Q237.01-17.84 237.01-21.12L237.01-21.12L237.01-21.12Q237.01-22.25 236.60-22.86L236.60-22.86L236.60-22.86Q236.18-23.47 235.35-23.47L235.35-23.47L235.35-23.47Q234.51-23.47 233.80-23.15L233.80-23.15L233.80-23.15Q233.09-22.83 232.36-21.76L232.36-21.76L232.36-21.76Q230.55-19.31 229.52-13.62ZM259.75-23.86L259.75-23.86L259.75-23.86Q258.08-25.14 258.08-27.86L258.08-27.86L258.08-27.86Q258.08-30.58 259.87-32.00L259.87-32.00L259.87-32.00Q261.66-33.42 264.75-33.42L264.75-33.42L264.75-33.42Q266.71-33.42 271.36-32.73L271.36-32.73L274.69-32.24L274.69-32.24Q276.36-32.05 278.10-32.05L278.10-32.05L278.10-32.05Q279.84-32.05 281.01-32.78L281.01-32.78L281.01-32.78Q282.78-31.21 282.78-28.96L282.78-28.96L282.78-28.96Q282.78-26.71 280.77-25.09L280.77-25.09L280.77-25.09Q278.71-23.37 276.07-23.37L276.07-23.37L276.07-23.37Q274.79-23.37 272.73-23.72L272.73-23.72L272.73-23.72Q270.33-16.17 270.33-10.93L270.33-10.93L270.33-10.93Q270.33-5.68 272.98-2.94L272.98-2.94L272.98-2.94Q271.75-0.73 269.94 0.12L269.94 0.12L269.94 0.12Q268.13 0.98 265.41 0.98L265.41 0.98L265.41 0.98Q262.69 0.98 261.00-0.51L261.00-0.51L261.00-0.51Q259.31-2.01 259.31-5.10L259.31-5.10L259.31-5.10Q259.31-8.67 261.27-14.55L261.27-14.55L261.27-14.55Q263.23-20.38 266.17-24.84L266.17-24.84L266.17-24.84Q264.75-24.99 263.28-24.99L263.28-24.99L263.28-24.99Q260.24-24.99 259.75-23.86ZM317.76-8.18L317.76-8.18Q314.53-3.72 311.42-1.37L311.42-1.37L311.42-1.37Q308.31 0.98 305.10 0.98L305.10 0.98L305.10 0.98Q301.89 0.98 300.76 0.34L300.76 0.34L300.76-10.44L300.76-10.44Q297.97-2.99 292.97-0.10L292.97-0.10L292.97-0.10Q291.16 0.98 289.44 0.98L289.44 0.98L289.44 0.98Q286.16 0.98 284.74 0.34L284.74 0.34L284.74 0.34Q284.40-10.88 284.10-13.99L284.10-13.99L284.10-13.99Q283.81-17.10 283.56-19.01L283.56-19.01L283.56-19.01Q283.07-22.83 281.41-24.40L281.41-24.40L281.41-24.40Q283.51-25.97 286.45-25.97L286.45-25.97L286.45-25.97Q292.14-25.97 292.92-18.91L292.92-18.91L292.92-18.91Q293.12-17.25 293.12-15.48L293.12-15.48L293.12-15.48Q293.12-12.84 292.53-3.63L292.53-3.63L292.53-3.63Q293.71-4.17 294.96-6.10L294.96-6.10L294.96-6.10Q296.20-8.04 297.23-10.68L297.23-10.68L297.23-10.68Q299.54-16.81 299.54-22.10L299.54-22.10L299.54-22.10Q299.54-22.93 299.32-23.81L299.32-23.81L299.32-23.81Q299.10-24.70 298.85-24.94L298.85-24.94L298.85-24.94Q300.57-25.97 303.19-25.97L303.19-25.97L303.19-25.97Q305.81-25.97 307.06-24.18L307.06-24.18L307.06-24.18Q308.31-22.39 308.65-19.11L308.65-19.11L308.65-19.11Q309.04-14.95 309.04-12.45L309.04-12.45L309.04-12.45Q309.04-8.97 308.70-3.82L308.70-3.82L308.70-3.82Q311.15-5.59 313.16-11.37L313.16-11.37L313.16-11.37Q315.17-17.15 315.17-21.27L315.17-21.27L315.17-21.27Q315.17-23.08 314.87-24.16L314.87-24.16L314.87-24.16Q316.49-25.97 319.28-25.97L319.28-25.97L319.28-25.97Q321.00-25.97 322.25-25.04L322.25-25.04L322.25-25.04Q323.50-24.11 323.50-22.37L323.50-22.37L323.50-22.37Q323.50-20.63 322.98-18.77L322.98-18.77L322.98-18.77Q322.47-16.91 321.64-14.99L321.64-14.99L321.64-14.99Q320.02-11.17 317.76-8.18L317.76-8.18ZM344.67-8.28L344.67-8.28L344.67-8.28Q345.89-7.45 345.89-5.61L345.89-5.61L345.89-5.61Q345.89-3.77 344.96-2.60L344.96-2.60L344.96-2.60Q344.03-1.42 342.51-0.64L342.51-0.64L342.51-0.64Q339.37 0.98 335.99 0.98L335.99 0.98L335.99 0.98Q332.61 0.98 330.63 0.24L330.63 0.24L330.63 0.24Q328.64-0.49 327.32-1.86L327.32-1.86L327.32-1.86Q324.72-4.46 324.72-9.21L324.72-9.21L324.72-9.21Q324.72-16.61 328.74-21.12L328.74-21.12L328.74-21.12Q333.05-25.97 340.55-25.97L340.55-25.97L340.55-25.97Q345.20-25.97 347.51-24.01L347.51-24.01L347.51-24.01Q349.22-22.54 349.22-20.14L349.22-20.14L349.22-20.14Q349.22-11.52 334.33-11.52L334.33-11.52L334.33-11.52Q334.13-10.24 334.13-9.16L334.13-9.16L334.13-9.16Q334.13-6.91 335.14-6.05L335.14-6.05L335.14-6.05Q336.14-5.19 338.00-5.19L338.00-5.19L338.00-5.19Q339.86-5.19 341.85-6.05L341.85-6.05L341.85-6.05Q343.83-6.91 344.67-8.28ZM334.67-13.62L334.67-13.62L334.67-13.62Q338.15-13.62 340.16-15.78L340.16-15.78L340.16-15.78Q342.17-17.84 342.17-21.12L342.17-21.12L342.17-21.12Q342.17-22.25 341.75-22.86L341.75-22.86L341.75-22.86Q341.33-23.47 340.50-23.47L340.50-23.47L340.50-23.47Q339.67-23.47 338.96-23.15L338.96-23.15L338.96-23.15Q338.25-22.83 337.51-21.76L337.51-21.76L337.51-21.76Q335.70-19.31 334.67-13.62ZM370.73-8.28L370.73-8.28L370.73-8.28Q371.96-7.45 371.96-5.61L371.96-5.61L371.96-5.61Q371.96-3.77 371.03-2.60L371.03-2.60L371.03-2.60Q370.10-1.42 368.58-0.64L368.58-0.64L368.58-0.64Q365.44 0.98 362.06 0.98L362.06 0.98L362.06 0.98Q358.68 0.98 356.70 0.24L356.70 0.24L356.70 0.24Q354.71-0.49 353.39-1.86L353.39-1.86L353.39-1.86Q350.79-4.46 350.79-9.21L350.79-9.21L350.79-9.21Q350.79-16.61 354.81-21.12L354.81-21.12L354.81-21.12Q359.12-25.97 366.62-25.97L366.62-25.97L366.62-25.97Q371.27-25.97 373.58-24.01L373.58-24.01L373.58-24.01Q375.29-22.54 375.29-20.14L375.29-20.14L375.29-20.14Q375.29-11.52 360.39-11.52L360.39-11.52L360.39-11.52Q360.20-10.24 360.20-9.16L360.20-9.16L360.20-9.16Q360.20-6.91 361.20-6.05L361.20-6.05L361.20-6.05Q362.21-5.19 364.07-5.19L364.07-5.19L364.07-5.19Q365.93-5.19 367.92-6.05L367.92-6.05L367.92-6.05Q369.90-6.91 370.73-8.28ZM360.74-13.62L360.74-13.62L360.74-13.62Q364.22-13.62 366.23-15.78L366.23-15.78L366.23-15.78Q368.24-17.84 368.24-21.12L368.24-21.12L368.24-21.12Q368.24-22.25 367.82-22.86L367.82-22.86L367.82-22.86Q367.40-23.47 366.57-23.47L366.57-23.47L366.57-23.47Q365.74-23.47 365.03-23.15L365.03-23.15L365.03-23.15Q364.31-22.83 363.58-21.76L363.58-21.76L363.58-21.76Q361.77-19.31 360.74-13.62ZM377.74-4.90L377.74-4.90L377.74-4.90Q377.74-6.22 378.43-9.55L378.43-9.55L381.02-22.79L378.13-22.79L378.33-24.26L378.33-24.26Q384.21-26.02 389.89-30.33L389.89-30.33L392.24-30.33L391.07-24.99L394.89-24.99L394.45-22.79L390.68-22.79L388.18-9.55L388.18-9.55Q387.54-6.52 387.54-5.49L387.54-5.49L387.54-5.49Q387.54-3.14 389.60-2.65L389.60-2.65L389.60-2.65Q389.11-0.98 387.34 0L387.34 0L387.34 0Q385.58 0.98 383.08 0.98L383.08 0.98L383.08 0.98Q380.58 0.98 379.16-0.59L379.16-0.59L379.16-0.59Q377.74-2.16 377.74-4.90ZM409.30-17.20L409.30-17.20L409.30-17.20Q409.98-19.01 409.98-20.58L409.98-20.58L409.98-20.58Q409.98-23.47 407.63-23.47L407.63-23.47L407.63-23.47Q406.41-23.47 405.40-22.37L405.40-22.37L405.40-22.37Q404.40-21.27 404.40-19.89L404.40-19.89L404.40-19.89Q404.40-18.91 405.18-18.13L405.18-18.13L405.18-18.13Q406.31-17.05 409.20-15.29L409.20-15.29L409.20-15.29Q412.09-13.52 413.19-12.08L413.19-12.08L413.19-12.08Q414.29-10.63 414.29-8.65L414.29-8.65L414.29-8.65Q414.29-6.66 413.34-4.85L413.34-4.85L413.34-4.85Q412.38-3.04 410.67-1.76L410.67-1.76L410.67-1.76Q406.99 0.98 401.11 0.98L401.11 0.98L401.11 0.98Q397.93 0.98 395.48-0.69L395.48-0.69L395.48-0.69Q393.03-2.30 393.03-4.21L393.03-4.21L393.03-4.21Q393.03-6.13 394.43-7.25L394.43-7.25L394.43-7.25Q395.82-8.38 397.88-8.38L397.88-8.38L397.88-8.38Q399.94-8.38 401.21-7.60L401.21-7.60L401.21-7.60Q400.57-5.98 400.57-4.90L400.57-4.90L400.57-4.90Q400.57-1.67 403.32-1.67L403.32-1.67L403.32-1.67Q404.50-1.67 405.28-2.40L405.28-2.40L405.28-2.40Q406.06-3.14 406.06-4.41L406.06-4.41L406.06-4.41Q406.06-6.91 401.85-9.55L401.85-9.55L401.85-9.55Q398.42-11.81 397.63-12.69L397.63-12.69L397.63-12.69Q396.31-14.26 396.31-16.22L396.31-16.22L396.31-16.22Q396.31-18.18 397.24-20.04L397.24-20.04L397.24-20.04Q398.17-21.90 399.89-23.23L399.89-23.23L399.89-23.23Q403.47-25.97 409.69-25.97L409.69-25.97L409.69-25.97Q412.87-25.97 414.76-24.70L414.76-24.70L414.76-24.70Q416.65-23.42 416.65-21.27L416.65-21.27L416.65-21.27Q416.65-19.11 415.35-17.89L415.35-17.89L415.35-17.89Q414.05-16.66 411.70-16.66L411.70-16.66L411.70-16.66Q410.08-16.66 409.30-17.20Z" fill="url(#editing-gradient-gradient)"></path></g></g><style>text {
  font-size: 64px;
  font-family: Arial Black;
  dominant-baseline: central;
  text-anchor: middle;
}</style></svg>